<svg viewBox="0 0 26 26" fill="none" xmlns="http://www.w3.org/2000/svg">
<path d="M10.9264 11.5885H1.14453C0.820947 11.5885 0.558594 11.3262 0.558594 11.0026V1.2207C0.558594 0.897119 0.820947 0.634766 1.14453 0.634766H3.48828C3.81187 0.634766 4.07422 0.897119 4.07422 1.2207V5.03477C6.30923 2.55269 9.55566 0.999512 13.1648 1.02573C19.8497 1.07427 25.1984 6.47607 25.1842 13.1611C25.17 19.8368 19.7539 25.2441 13.0749 25.2441C9.94551 25.2441 7.0936 24.057 4.94448 22.1086C4.69551 21.883 4.68403 21.4957 4.92168 21.2581L6.58022 19.5995C6.79868 19.3811 7.14966 19.3692 7.38105 19.5739C8.89648 20.9148 10.8896 21.7285 13.0749 21.7285C17.8243 21.7285 21.6686 17.885 21.6686 13.1348C21.6686 8.3854 17.825 4.54102 13.0749 4.54102C10.2186 4.54102 7.69009 5.93145 6.12788 8.0729H10.9264C11.25 8.0729 11.5124 8.33525 11.5124 8.65884V11.0026C11.5124 11.3262 11.25 11.5885 10.9264 11.5885V11.5885Z" fill="#fff"/>
</svg>
