<svg viewBox="0 0 26 16" fill="none" xmlns="http://www.w3.org/2000/svg">
<path d="M23.4338 0.233643H8.95176C8.6234 0.233577 8.29824 0.298229 7.99488 0.423903C7.69152 0.549577 7.41591 0.733808 7.18379 0.966065L1.2998 6.84966C0.811523 7.33794 0.811523 8.12935 1.2998 8.61724L7.18379 14.5012C7.65254 14.97 8.28848 15.2336 8.95137 15.2336H23.4338C24.8146 15.2336 25.9338 14.1145 25.9338 12.7336V2.73364C25.9338 1.35278 24.8146 0.233643 23.4338 0.233643ZM20.1256 10.1579C20.3697 10.402 20.3697 10.7977 20.1256 11.0418L19.242 11.9254C18.9979 12.1696 18.6021 12.1696 18.358 11.9254L15.9338 9.50122L13.5096 11.9254C13.2654 12.1696 12.8697 12.1696 12.6256 11.9254L11.742 11.0418C11.4979 10.7977 11.4979 10.402 11.742 10.1579L14.1662 7.73364L11.742 5.30942C11.4979 5.06528 11.4979 4.66958 11.742 4.42544L12.6256 3.54185C12.8697 3.29771 13.2654 3.29771 13.5096 3.54185L15.9338 5.96606L18.358 3.54185C18.6021 3.29771 18.9979 3.29771 19.242 3.54185L20.1256 4.42544C20.3697 4.66958 20.3697 5.06528 20.1256 5.30942L17.7014 7.73364L20.1256 10.1579Z" fill="#fff"/>
</svg>
