<svg viewBox="0 0 62 62" fill="none" xmlns="http://www.w3.org/2000/svg">
<path d="M62 31C62 25.1756 60.3592 19.469 57.2655 14.5341C54.1718 9.59927 49.7505 5.63578 44.5081 3.09782C39.2657 0.559868 33.4144 -0.449871 27.6246 0.184309C21.8348 0.81849 16.3408 3.07093 11.7722 6.68354C7.20349 10.2961 3.74497 15.1228 1.79291 20.6103C-0.15915 26.0978 -0.525775 32.0243 0.735046 37.7106C1.99587 43.3969 4.83312 48.613 8.9217 52.7612C13.0103 56.9093 18.1848 59.8218 23.8522 61.1647L25.7419 53.1899C21.5728 52.202 17.7663 50.0595 14.7587 47.008C11.751 43.9565 9.66388 40.1195 8.73639 35.9365C7.8089 31.7535 8.0786 27.3939 9.51458 23.3571C10.9506 19.3203 13.4947 15.7698 16.8556 13.1122C20.2164 10.4547 24.2579 8.79777 28.517 8.33125C32.7761 7.86474 37.0805 8.60752 40.9369 10.4745C44.7933 12.3415 48.0457 15.2571 50.3215 18.8873C52.5973 22.5175 53.8043 26.7154 53.8043 31H62Z" fill="#6F3091"/>
</svg>
